<?xml version="1.0" encoding="UTF-8" standalone="no"?>
<!-- Created with Inkscape (http://www.inkscape.org/) -->

<svg
   xmlns:dc="http://purl.org/dc/elements/1.1/"
   xmlns:cc="http://creativecommons.org/ns#"
   xmlns:rdf="http://www.w3.org/1999/02/22-rdf-syntax-ns#"
   xmlns:svg="http://www.w3.org/2000/svg"
   xmlns="http://www.w3.org/2000/svg"
   xmlns:sodipodi="http://sodipodi.sourceforge.net/DTD/sodipodi-0.dtd"
   xmlns:inkscape="http://www.inkscape.org/namespaces/inkscape"
   width="512"
   height="512"
   viewBox="0 0 135.46666 135.46667"
   version="1.1"
   id="svg8"
   sodipodi:docname="favicon.svg"
   inkscape:export-filename="/home/reto/Documents/personal/trappitsch.github.io/assets/img/mine/favicon.png"
   inkscape:export-xdpi="96.000008"
   inkscape:export-ydpi="96.000008"
   inkscape:version="0.92.4 (5da689c313, 2019-01-14)">
  <defs
     id="defs2">
    <inkscape:perspective
       sodipodi:type="inkscape:persp3d"
       inkscape:vp_x="0 : 148.5 : 1"
       inkscape:vp_y="0 : 1000 : 0"
       inkscape:vp_z="210 : 148.5 : 1"
       inkscape:persp3d-origin="105 : 99 : 1"
       id="perspective36" />
  </defs>
  <sodipodi:namedview
     id="base"
     pagecolor="#ffffff"
     bordercolor="#666666"
     borderopacity="1.0"
     inkscape:pageopacity="0.0"
     inkscape:pageshadow="2"
     inkscape:zoom="0.75277409"
     inkscape:cx="140.14925"
     inkscape:cy="164.87077"
     inkscape:document-units="mm"
     inkscape:current-layer="layer1"
     showgrid="false"
     units="px"
     showguides="false"
     inkscape:window-width="1920"
     inkscape:window-height="1016"
     inkscape:window-x="0"
     inkscape:window-y="27"
     inkscape:window-maximized="1"
     inkscape:pagecheckerboard="true"
     scale-x="1.1" />
  <metadata
     id="metadata5">
    <rdf:RDF>
      <cc:Work
         rdf:about="">
        <dc:format>image/svg+xml</dc:format>
        <dc:type
           rdf:resource="http://purl.org/dc/dcmitype/StillImage" />
        <dc:title></dc:title>
      </cc:Work>
    </rdf:RDF>
  </metadata>
  <g
     inkscape:label="Layer 1"
     inkscape:groupmode="layer"
     id="layer1"
     transform="translate(0,-161.53332)">
    <path
       style="opacity:1;fill:#223b7a;fill-opacity:1;stroke:none;stroke-width:0.26458335;stroke-linecap:round;stroke-linejoin:round;stroke-miterlimit:4;stroke-dasharray:none;stroke-opacity:1;paint-order:stroke fill markers"
       id="path38"
       sodipodi:type="arc"
       sodipodi:cx="67.733337"
       sodipodi:cy="229.26665"
       sodipodi:rx="64.558334"
       sodipodi:ry="64.558334"
       sodipodi:start="6.0038803"
       sodipodi:end="5.9721755"
       d="M 129.78986,211.46871 A 64.558334,64.558334 0 0 1 86.022581,291.18015 64.558334,64.558334 0 0 1 5.96674,248.04605 64.558334,64.558334 0 0 1 48.464955,167.65084 64.558334,64.558334 0 0 1 129.19449,209.5105"
       sodipodi:open="true" />
    <path
       style="opacity:0.30800003;fill:#00000f;fill-opacity:0.94117647;stroke:none;stroke-width:0.99999994;stroke-linecap:round;stroke-linejoin:round;stroke-miterlimit:4;stroke-dasharray:none;stroke-opacity:1;paint-order:markers fill stroke"
       d="M 427.54883 234.87695 C 427.52541 234.86966 427.49809 234.87259 427.47461 234.88477 L 121.1582 393.80664 C 121.11125 393.831 121.09431 393.88884 121.11914 393.93555 L 168.76172 483.54688 A 244 244 0 0 0 325.125 490.00391 A 244 244 0 0 0 484.24219 341.44922 L 427.60547 234.92383 C 427.59305 234.90048 427.57225 234.88424 427.54883 234.87695 z M 512 393.66016 L 512 511.9043 C 512 511.95721 511.95721 512 511.9043 512 L 183.89062 512 L 330.28711 787.35352 C 330.31194 787.40022 330.37102 787.41889 330.41797 787.39453 L 636.73438 628.4707 C 636.78133 628.44634 636.79827 628.39045 636.77344 628.34375 L 512 393.66016 z "
       transform="matrix(0.26458333,0,0,0.26458333,0,161.53332)"
       id="rect985" />
    <path
       sodipodi:type="star"
       style="opacity:1;fill:#ececec;fill-opacity:1;stroke:none;stroke-width:0.23298939;stroke-linecap:round;stroke-linejoin:round;stroke-miterlimit:4;stroke-dasharray:none;stroke-opacity:1;paint-order:stroke fill markers"
       id="path849"
       sodipodi:sides="5"
       sodipodi:cx="65.612534"
       sodipodi:cy="230.64188"
       sodipodi:r1="41.914364"
       sodipodi:r2="20.566212"
       sodipodi:arg1="1.0832806"
       sodipodi:arg2="1.8659658"
       inkscape:flatsided="false"
       inkscape:rounded="0"
       inkscape:randomized="0"
       d="M 85.246583,267.67319 59.629781,250.31866 36.460919,260.75827 45.05003,231.0324 27.961795,212.22352 l 30.925165,-1.01707 12.607752,-22.06414 10.523692,29.09729 24.880256,5.17249 -24.421167,19.00018 z"
       inkscape:transform-center-x="-0.12268835"
       inkscape:transform-center-y="-4.4621112"
       transform="matrix(1.1507206,0,0,1.1206829,-9.8600136,-26.706012)" />
  </g>
</svg>
